<svg xmlns="http://www.w3.org/2000/svg" viewBox="0 0 1024 1024" role="img" aria-label="Obelus app icon">
  <title>Obelus</title>
  <rect x="100" y="100" width="824" height="824" rx="185" ry="185" fill="#F6F1E7"/>
  <g transform="translate(192 192) scale(10)" fill="#B84A2E">
    <ellipse cx="32" cy="18.4" rx="3.9" ry="3.6"/>
    <path d="M10.5,31.3 C12,30.9 18.6,30.8 32,30.8 C45.4,30.8 52,30.9 53.5,31.3 C53.8,31.9 53.8,32.6 53.5,33.2 C52,33.6 45.4,33.7 32,33.7 C18.6,33.7 12,33.6 10.5,33.2 C10.2,32.6 10.2,31.9 10.5,31.3 Z"/>
    <ellipse cx="32" cy="46.1" rx="3.7" ry="3.9"/>
  </g>
  <rect x="101" y="101" width="822" height="822" rx="184" ry="184" fill="none" stroke="#2B2A26" stroke-opacity="0.08" stroke-width="2"/>
</svg>
