<svg xmlns="http://www.w3.org/2000/svg" viewBox="0 0 320 80" role="img" aria-label="Obelus">
  <title>Obelus</title>
  <g fill="#B84A2E" transform="translate(8,8)">
    <ellipse cx="32" cy="18.4" rx="3.9" ry="3.6"/>
    <path d="M10.5,31.3 C12,30.9 18.6,30.8 32,30.8 C45.4,30.8 52,30.9 53.5,31.3 C53.8,31.9 53.8,32.6 53.5,33.2 C52,33.6 45.4,33.7 32,33.7 C18.6,33.7 12,33.6 10.5,33.2 C10.2,32.6 10.2,31.9 10.5,31.3 Z"/>
    <ellipse cx="32" cy="46.1" rx="3.7" ry="3.9"/>
  </g>
  <path fill="#2B2A26" d="m 127.73242,33.244141 q 0,4.082031 -1.5039,7.691406 -1.50391,3.58789 -3.93164,6.144531 -2.49219,2.621094 -5.69336,4.146484 -3.17969,1.503907 -6.59571,1.503907 -5.32812,0 -8.59375,-3.458985 -3.265623,-3.458984 -3.265623,-8.873047 0,-4.167968 1.503907,-7.734375 1.503906,-3.58789 3.910156,-6.1875 2.42773,-2.642578 5.65039,-4.167968 3.24414,-1.525391 6.66016,-1.525391 5.24218,0 8.55078,3.394531 3.30859,3.373047 3.30859,9.066407 z m -8.20703,11.472656 q 1.52539,-2.664063 2.3418,-6.015625 0.8164,-3.351563 0.8164,-6.703125 0,-4.296875 -1.82617,-6.853516 -1.82617,-2.55664 -5.37109,-2.55664 -2.75,0 -5.11328,1.632812 -2.36328,1.632813 -4.125,4.791016 -1.52539,2.771484 -2.29883,6.101562 -0.75195,3.330078 -0.75195,6.273438 0,4.511718 1.84765,7.02539 1.86914,2.513672 5.32813,2.513672 2.94336,0 5.28515,-1.761719 2.3418,-1.761718 3.86719,-4.447265 z M 151.5,38.529297 q 0,2.857422 -1.03125,5.478515 -1.03125,2.59961 -2.72852,4.490235 -1.74023,1.933594 -3.93164,3.050781 -2.1914,1.095703 -4.64062,1.095703 -1.84766,0 -3.26563,-0.322265 -1.39648,-0.300782 -2.38476,-0.837891 -1.00977,-0.558594 -1.67578,-1.246094 -0.66602,-0.708984 -1.20313,-1.568359 l 5.54297,-24.320313 q 0.10742,-0.49414 0.17188,-0.83789 0.0859,-0.365235 0.0859,-0.730469 0,-0.773438 -0.25781,-1.181641 -0.25781,-0.429687 -0.73047,-0.644531 Q 135,20.761719 134.3125,20.697266 q -0.6875,-0.06445 -1.39648,-0.150391 l 0.30078,-1.310547 7.9707,-0.494141 0.21484,0.322266 -3.26562,14.287109 h 0.0859 q 1.93359,-1.71875 3.39453,-2.363281 1.48242,-0.666015 2.8789,-0.666015 3.26563,0 5.13477,2.234375 1.86914,2.21289 1.86914,5.972656 z m -4.42578,0.107422 q 0,-1.138672 -0.21485,-2.277344 -0.19335,-1.160156 -0.66601,-1.933594 -0.49414,-0.816406 -1.35352,-1.289062 -0.85937,-0.472657 -2.12695,-0.472657 -0.75195,0 -1.41797,0.257813 -0.66601,0.257812 -1.375,0.6875 -0.62305,0.386719 -1.22461,0.945312 -0.58008,0.53711 -1.07422,0.966797 l -2.85742,12.740235 q 0.0645,0.429687 0.38672,0.945312 0.32227,0.515625 0.81641,0.902344 0.60156,0.494141 1.35351,0.751953 0.75196,0.257813 1.6543,0.257813 1.69726,0 3.17969,-0.988282 1.5039,-1.009765 2.57812,-2.707031 1.18164,-1.847656 1.76172,-4.125 0.58008,-2.277344 0.58008,-4.662109 z m 26.32422,-3.845703 q 0,2.277343 -1.43946,3.910156 -1.41796,1.632812 -4.14648,2.599609 -1.99805,0.730469 -4.03906,1.181641 -2.04102,0.451172 -4.51172,0.751953 0,3.394531 1.24609,5.199219 1.26758,1.783203 3.69531,1.783203 2.14844,0 3.78125,-1.074219 1.6543,-1.074219 3.24415,-3.201172 l 1.2246,0.902344 q -1.71875,2.621094 -4.29687,4.189453 -2.57813,1.568359 -5.34961,1.568359 -3.80273,0 -5.82227,-2.126953 -1.99804,-2.126953 -1.99804,-6.037109 0,-2.707031 0.83789,-5.15625 0.85937,-2.470703 2.49219,-4.511719 1.58984,-1.998047 3.88867,-3.222656 2.32031,-1.224609 5.11328,-1.224609 3.09375,0 4.57617,1.267578 1.50391,1.246093 1.50391,3.201172 z m -3.95313,-0.53711 q 0,-0.83789 -0.23633,-1.310547 -0.23632,-0.49414 -0.60156,-0.730468 -0.38672,-0.257813 -0.8164,-0.322266 -0.42969,-0.06445 -0.88086,-0.06445 -2.57813,0 -4.76954,2.835937 -2.16992,2.835938 -2.75,7.06836 1.50391,-0.214844 3.39454,-0.601563 1.89062,-0.408203 3.13671,-1.052734 1.78321,-0.923828 2.64258,-2.363281 0.88086,-1.460938 0.88086,-3.458985 z m 18.20313,-15.189453 -5.99414,25.867188 q -0.19336,0.816406 -0.36524,1.632812 -0.17187,0.816406 -0.17187,1.332031 0,1.22461 0.53711,1.675782 0.55859,0.451171 1.7832,0.451171 0.42969,0 1.26758,-0.107421 0.85937,-0.107422 1.28906,-0.257813 l -0.32227,1.375 q -1.93359,0.773438 -2.98632,1.095703 -1.03125,0.322266 -2.3418,0.322266 -1.71875,0 -2.62109,-0.88086 -0.88086,-0.902343 -0.88086,-2.21289 0,-0.494141 0.0859,-1.03125 0.10743,-0.53711 0.2793,-1.353516 l 5.2207,-22.623047 q 0.15039,-0.666015 0.19336,-0.923828 0.0645,-0.257812 0.0645,-0.644531 0,-0.773438 -0.25782,-1.181641 -0.25781,-0.429687 -0.73046,-0.644531 -0.45118,-0.193359 -1.13868,-0.257812 -0.6875,-0.06445 -1.39648,-0.150391 l 0.30078,-1.310547 7.9707,-0.494141 z m 15.3457,29.927734 h -0.12891 q -0.98828,0.794922 -1.89062,1.460938 -0.90234,0.666016 -1.7832,1.117187 -1.03125,0.515625 -1.86914,0.730469 -0.8379,0.236328 -2.19141,0.236328 -2.0625,0 -3.20117,-1.18164 -1.13867,-1.203125 -1.13867,-3.136719 0,-0.515625 0.0859,-1.224609 0.0859,-0.708985 0.40821,-2.105469 l 1.67578,-6.810547 q 0.21484,-0.945313 0.34375,-1.675781 0.15039,-0.730469 0.15039,-1.396485 0,-1.203125 -0.40821,-1.589843 -0.38671,-0.408204 -1.61132,-0.408204 -0.47266,0 -1.20313,0.171875 -0.73047,0.171875 -1.13867,0.279297 l 0.32227,-1.375 q 1.67578,-0.751953 2.94335,-1.138672 1.28907,-0.386718 2.0625,-0.386718 1.71875,0 2.51368,0.816406 0.8164,0.794922 0.8164,2.277344 0,0.386718 -0.0859,1.052734 -0.0859,0.666016 -0.25782,1.332031 l -1.91211,7.949219 q -0.21484,0.902344 -0.36523,1.697266 -0.12891,0.773437 -0.12891,1.18164 0,1.439453 0.62305,2.277344 0.62305,0.837891 1.97656,0.837891 1.375,0 2.81446,-0.708985 1.46093,-0.730468 2.92187,-2.191406 l 3.75977,-16.177734 3.73828,-0.257813 0.25781,0.322266 -3.20117,13.835937 q -0.21485,0.88086 -0.38672,1.783203 -0.17188,0.88086 -0.17188,1.246094 0,1.22461 0.51563,1.675781 0.53711,0.429688 1.76172,0.429688 0.4082,0 1.16015,-0.128906 0.75196,-0.128907 1.16016,-0.279297 l -0.32227,1.375 q -1.7832,0.730469 -2.98632,1.095703 -1.18164,0.365234 -2.19141,0.365234 -1.74023,0 -2.59961,-1.009765 -0.83789,-1.009766 -0.83789,-2.363282 z m 18.39648,3.63086 q -3.17968,0 -5.30664,-1.117188 -2.10546,-1.138672 -2.10546,-2.964843 0,-0.859375 0.62304,-1.611329 0.62305,-0.751953 1.52539,-0.751953 0.85938,0 1.375,0.408203 0.53711,0.386719 0.83789,0.923829 0.32227,0.558593 0.5586,1.332031 0.25781,0.773437 0.42968,1.267578 0.32227,0.365234 0.88086,0.6875 0.58008,0.300781 1.6543,0.300781 2.32031,0 3.50195,-1.160156 1.20313,-1.160156 1.20313,-3.136719 0,-1.460937 -1.11719,-2.320312 -1.11719,-0.88086 -3.33008,-1.611328 -0.79492,-0.257813 -1.86914,-0.773438 -1.07422,-0.537109 -1.71875,-1.138672 -0.77343,-0.6875 -1.24609,-1.632812 -0.47266,-0.945313 -0.47266,-2.234375 0,-2.75 2.44922,-4.748047 2.4707,-2.019531 6.0586,-2.019531 0.83789,0 1.80468,0.08594 0.9668,0.08594 2.12696,0.472656 1.00976,0.34375 1.71875,1.03125 0.70898,0.666016 0.70898,1.740235 0,0.880859 -0.60156,1.611328 -0.58008,0.708984 -1.54688,0.708984 -0.79492,0 -1.31054,-0.34375 -0.51563,-0.34375 -0.85938,-0.923828 -0.34375,-0.580078 -0.55859,-1.246094 -0.21485,-0.666015 -0.47266,-1.310547 -0.4082,-0.171875 -0.73047,-0.236328 -0.32226,-0.06445 -0.85937,-0.06445 -2.10547,0 -3.20117,1.138672 -1.07422,1.117188 -1.07422,2.664063 0,1.503906 0.96679,2.277343 0.98828,0.751953 3.24414,1.56836 2.92188,1.052734 4.23243,2.40625 1.33203,1.353515 1.33203,3.351562 0,3.265625 -2.51367,5.328125 -2.51368,2.041016 -6.3379,2.041016 z"/>
</svg>
